# xmcd CD database file
#
# Track frame offsets:
#	150
#	11419
#	22674
#	34097
#	47422
#	60641
#	71937
#	83391
#	91834
#	103143
#	115213
#	125747
#	137377
#	148429
#	160347
#	173411
#	185181
#	194486
#	204321
#	216944
#	230312
#	241397
#	252616
#	261816
#
# Disc length: 3619 seconds
#
# Revision: 3
# Processed by: cddbd v1.5.1PL2 Copyright (c) Steve Scherf et al.
# Submitted via: CDex 1.51
#
DISCID=530e2118
DTITLE=Jim Reeves - Moonlight And Roses - The Jim Reeves Way
DYEAR=2004
DGENRE=Country
TTITLE0=Moonlight And Roses
TTITLE1=Mexicali Rose
TTITLE2=Carolina Moon
TTITLE3=Rosa Rio
TTITLE4=Oh! What It Seemed To Be
TTITLE5=What's In It For Me?
TTITLE6=Roses
TTITLE7=One Dozen Roses
TTITLE8=Moon River
TTITLE9=There's A New Moon Over My Shoulder
TTITLE10=It's Only A Paper Moon
TTITLE11=When I Lost You
TTITLE12=Make The World Go Away
TTITLE13=In The Misty Moonlight
TTITLE14=You'll Never Know
TTITLE15=There's That Smile Again
TTITLE16=Bolandse Nooientjie
TTITLE17=It Hurts So Much (To See You Go)
TTITLE18=I Can't Stop Loving You
TTITLE19=A Nickel Piece Of Candy
TTITLE20=Where Do I Go To Throw A Picture Away
TTITLE21=Maureen
TTITLE22=Ek Verlang Na Jou
TTITLE23=Somewhere Along The Line
EXTD=YEAR: 2004
EXTT0=
EXTT1=
EXTT2=
EXTT3=
EXTT4=
EXTT5=
EXTT6=
EXTT7=
EXTT8=
EXTT9=
EXTT10=
EXTT11=
EXTT12=
EXTT13=
EXTT14=
EXTT15=
EXTT16=
EXTT17=
EXTT18=
EXTT19=
EXTT20=
EXTT21=
EXTT22=
EXTT23=
PLAYORDER=
